<?xml version="1.0" encoding="utf-8"?>
<svg viewBox="0 0 91 91" xmlns="http://www.w3.org/2000/svg">
  <g>
    <path d="M 58.368 47.305 C 54.651 50.583 49.78 52.592 44.444 52.592 C 39.161 52.592 34.188 50.619 30.485 47.393 C 30.452 47.413 30.138 47.446 30.102 47.459 C 23.998 50.347 20.049 55.336 20.049 61.507 L 20.049 82.361 L 68.156 82.361 L 68.156 61.506 C 68.156 55.357 64.581 50.191 58.368 47.305 Z" fill="#E0F1F8"/>
    <g transform="matrix(1, 0, 0, 1, 17.79744, 2.22468)">
      <path d="M45.289,31.041c0,10.456-8.421,18.93-18.814,18.93c-10.384,0-18.802-8.474-18.802-18.93    c0-10.455,8.418-18.936,18.802-18.936C36.868,12.105,45.289,20.586,45.289,31.041z" fill="#B0E0D4"/>
      <path d="M26.475,52.482c-11.753,0-21.314-9.618-21.314-21.441c0-11.826,9.562-21.447,21.314-21.447    c11.76,0,21.327,9.621,21.327,21.447C47.802,42.864,38.234,52.482,26.475,52.482z M26.475,14.619    c-8.981,0-16.289,7.367-16.289,16.422c0,9.053,7.308,16.416,16.289,16.416c8.989,0,16.302-7.363,16.302-16.416    C42.776,21.986,35.464,14.619,26.475,14.619z" fill="#454B53"/>
    </g>
    <path d="M 67.601 83.615 C 66.213 83.615 65.088 82.49 65.088 81.102 L 65.088 57.947 C 65.088 53.223 62.81 50.204 57.698 48.157 C 56.41 47.641 55.784 46.178 56.301 44.89 C 56.816 43.602 58.277 42.975 59.568 43.492 C 66.565 46.296 70.114 51.159 70.114 57.947 L 70.114 81.102 C 70.113 82.49 68.988 83.615 67.601 83.615 Z" fill="#454B53"/>
    <path d="M 21.25 83.615 C 19.862 83.615 18.737 82.49 18.737 81.102 L 18.737 57.942 C 18.737 53.338 20.561 47.096 29.254 43.503 C 30.532 42.974 32.006 43.582 32.536 44.864 C 33.066 46.147 32.456 47.616 31.174 48.146 C 26.187 50.208 23.763 53.413 23.763 57.942 L 23.763 81.102 C 23.763 82.49 22.638 83.615 21.25 83.615 Z" fill="#454B53"/>
  </g>
</svg>